# Blender 4.1.1
# www.blender.org
mtllib player.mtl
o player
v -1.617439 0.190207 0.323556
v -1.617439 0.790657 0.323556
v -1.617439 0.190207 -0.323555
v -1.617439 0.790657 -0.323555
v -0.581792 0.994050 0.173253
v -0.581792 1.315571 0.173253
v -0.581792 0.994050 -0.173253
v -0.581792 1.315571 -0.173253
v -0.377116 0.453444 0.319245
v -0.527962 1.452537 0.319245
v -0.377116 0.453444 -0.319245
v -0.527962 1.452537 -0.319245
v 0.377116 0.453444 0.319245
v 0.527962 1.452537 0.319245
v 0.377116 0.453444 -0.319245
v 0.527962 1.452537 -0.319245
v -0.390264 1.654482 -0.333602
v -0.390264 1.654482 0.333602
v -0.390264 2.309630 -0.333602
v -0.390264 2.309630 0.333602
v 0.383896 1.654482 -0.333602
v 0.383896 1.654482 0.333602
v 0.383896 2.309630 -0.333602
v 0.383896 2.309630 0.333602
v 1.617439 0.224353 -0.323555
v 1.617439 0.824803 -0.323555
v 1.617439 0.224353 0.323555
v 1.617439 0.824803 0.323555
v 0.581792 1.028196 -0.173253
v 0.581792 1.349717 -0.173253
v 0.581792 1.028196 0.173253
v 0.581792 1.349717 0.173253
vn -1.0000 -0.0000 -0.0000
vn 0.1436 -0.0000 -0.9896
vn 1.0000 -0.0000 -0.0000
vn 0.1436 -0.0000 0.9896
vn 0.6132 -0.7900 -0.0000
vn -0.4521 0.8920 -0.0000
vn -0.9888 -0.1493 -0.0000
vn -0.0000 -0.0000 -1.0000
vn 0.9888 -0.1493 -0.0000
vn -0.0000 -0.0000 1.0000
vn -0.0000 -1.0000 -0.0000
vn -0.0000 1.0000 -0.0000
vn -0.1436 -0.0000 0.9896
vn -0.1436 -0.0000 -0.9896
vn -0.6132 -0.7900 -0.0000
vn 0.4521 0.8920 -0.0000
vt 0.786481 0.053652
vt 0.653785 0.099729
vt 0.702115 0.008806
vt 0.738151 0.144574
vt 0.688571 0.306802
vt 0.733746 0.330815
vt 0.662692 0.355488
vt 0.555955 0.487335
vt 0.471589 0.442490
vt 0.467264 0.278693
vt 0.515594 0.187771
vt 0.908108 0.396413
vt 0.707867 0.379501
vt 0.859778 0.487335
vt 0.008806 0.926992
vt 0.196780 0.898048
vt 0.156211 0.991194
vt 0.049376 0.833846
vt 0.260593 0.796404
vt 0.138714 0.691546
vt 0.326854 0.719388
vt 0.204975 0.614529
vt 0.417832 0.641116
vt 0.417832 0.797660
vt 0.351571 0.874677
vt 0.011346 0.581964
vt 0.332344 0.504948
vt 0.077607 0.504948
vt 0.435444 0.580019
vt 0.584230 0.578663
vt 0.509159 0.653734
vt 0.596264 0.740839
vt 0.671335 0.665768
vt 0.669979 0.814553
vt 0.745050 0.739482
vt 0.757084 0.901659
vt 0.582873 0.901659
vt 0.509159 0.827944
vt 0.758440 0.578663
vt 0.510515 0.504948
vt 0.832155 0.826588
vt 0.832155 0.652377
vt 0.328024 0.053652
vt 0.195328 0.099729
vt 0.243658 0.008806
vt 0.279694 0.144574
vt 0.230113 0.306802
vt 0.275289 0.330815
vt 0.204234 0.355488
vt 0.097498 0.487335
vt 0.013132 0.442490
vt 0.057136 0.187771
vt 0.008806 0.278693
vt 0.449651 0.396413
vt 0.249409 0.379501
vt 0.401321 0.487335
s 0
usemtl tex
f 2/1/1 3/2/1 1/3/1
f 4/4/2 7/5/2 3/2/2
f 8/6/3 5/7/3 7/5/3
f 5/7/4 2/8/4 1/9/4
f 7/5/5 1/10/5 3/11/5
f 4/12/6 6/13/6 8/6/6
f 2/1/1 4/4/1 3/2/1
f 4/4/2 8/6/2 7/5/2
f 8/6/3 6/13/3 5/7/3
f 5/7/4 6/13/4 2/8/4
f 7/5/5 5/7/5 1/10/5
f 4/12/6 2/14/6 6/13/6
f 10/15/7 11/16/7 9/17/7
f 12/18/8 15/19/8 11/16/8
f 16/20/9 13/21/9 15/19/9
f 14/22/10 9/23/10 13/21/10
f 15/19/11 9/24/11 11/25/11
f 12/26/12 14/22/12 16/20/12
f 10/15/7 12/18/7 11/16/7
f 12/18/8 16/20/8 15/19/8
f 16/20/9 14/22/9 13/21/9
f 14/22/10 10/27/10 9/23/10
f 15/19/11 13/21/11 9/24/11
f 12/26/12 10/28/12 14/22/12
f 17/29/1 20/30/1 19/31/1
f 20/30/12 23/32/12 19/31/12
f 24/33/3 21/34/3 23/32/3
f 22/35/11 17/36/11 21/34/11
f 23/32/8 17/37/8 19/38/8
f 20/39/10 22/35/10 24/33/10
f 17/29/1 18/40/1 20/30/1
f 20/30/12 24/33/12 23/32/12
f 24/33/3 22/35/3 21/34/3
f 22/35/11 18/41/11 17/36/11
f 23/32/8 21/34/8 17/37/8
f 20/39/10 18/42/10 22/35/10
f 26/43/3 27/44/3 25/45/3
f 28/46/13 31/47/13 27/44/13
f 32/48/1 29/49/1 31/47/1
f 29/49/14 26/50/14 25/51/14
f 27/52/15 29/49/15 25/53/15
f 28/54/16 30/55/16 32/48/16
f 26/43/3 28/46/3 27/44/3
f 28/46/13 32/48/13 31/47/13
f 32/48/1 30/55/1 29/49/1
f 29/49/14 30/55/14 26/50/14
f 27/52/15 31/47/15 29/49/15
f 28/54/16 26/56/16 30/55/16
