# Blender 4.1.1
# www.blender.org
mtllib enemy.mtl
o Cube
v 1.000000 2.055475 -1.000000
v 1.000000 0.055475 -1.000000
v 1.000000 2.055475 1.000000
v 1.000000 0.055475 1.000000
v -1.000000 2.055475 -1.000000
v -1.000000 0.055475 -1.000000
v -1.000000 2.055475 1.000000
v -1.000000 0.055475 1.000000
v 1.399194 0.733826 -1.495764
v 1.399194 1.336867 -1.495764
v 2.002235 0.733826 -1.495764
v 2.002235 1.336867 -1.495764
v 1.691669 1.035950 2.538195
v 1.691669 1.035950 2.538195
v 1.691669 1.035950 2.538195
v 1.691669 1.035950 2.538195
v 2.002235 0.733826 1.281548
v 2.002235 1.336867 1.281548
v 1.399194 0.733826 1.281548
v 1.399194 1.336867 1.281548
v -2.002230 0.733826 -1.495764
v -2.002230 1.336867 -1.495764
v -1.399190 0.733826 -1.495764
v -1.399190 1.336867 -1.495764
v -1.709756 1.035950 2.538195
v -1.709756 1.035950 2.538195
v -1.709756 1.035950 2.538195
v -1.709756 1.035950 2.538195
v -1.399190 0.733826 1.281548
v -1.399190 1.336867 1.281548
v -2.002230 0.733826 1.281548
v -2.002230 1.336867 1.281548
vn -0.0000 1.0000 -0.0000
vn -0.0000 -0.0000 1.0000
vn -1.0000 -0.0000 -0.0000
vn -0.0000 -1.0000 -0.0000
vn 1.0000 -0.0000 -0.0000
vn -0.0000 -0.0000 -1.0000
vn 0.9708 -0.0000 0.2399
vn -0.0000 -0.9723 0.2338
vn -0.0000 0.9725 0.2329
vn -0.9740 -0.0000 0.2267
vt 0.383860 0.383860
vt 0.572280 0.383860
vt 0.572280 0.572280
vt 0.383860 0.572280
vt 0.195439 0.572280
vt 0.383860 0.760701
vt 0.195439 0.760701
vt 0.195439 0.007019
vt 0.383860 0.007019
vt 0.383860 0.195439
vt 0.195439 0.195439
vt 0.007019 0.383860
vt 0.195439 0.383860
vt 0.007019 0.572280
vt 0.637017 0.273104
vt 0.693530 0.267290
vt 0.699343 0.323803
vt 0.642830 0.329617
vt 0.669605 0.589888
vt 0.726118 0.584074
vt 0.710436 0.708321
vt 0.710397 0.708281
vt 0.710302 0.708271
vt 0.710324 0.708258
vt 0.610242 0.012832
vt 0.666755 0.007019
vt 0.621706 0.620396
vt 0.755856 0.317989
vt 0.782631 0.578261
vt 0.586317 0.725276
vt 0.591962 0.668770
vt 0.613092 0.595702
vt 0.586317 0.335430
vt 0.847367 0.273104
vt 0.903880 0.267290
vt 0.909694 0.323803
vt 0.853181 0.329617
vt 0.879956 0.589888
vt 0.936468 0.584074
vt 0.920787 0.708321
vt 0.920747 0.708282
vt 0.920653 0.708271
vt 0.920674 0.708258
vt 0.820593 0.012832
vt 0.877106 0.007019
vt 0.832057 0.620396
vt 0.966207 0.317989
vt 0.992981 0.578261
vt 0.796668 0.725276
vt 0.802313 0.668770
vt 0.823443 0.595702
vt 0.796668 0.335430
s 0
usemtl Material
f 1/1/1 5/2/1 7/3/1 3/4/1
f 4/5/2 3/4/2 7/6/2 8/7/2
f 8/8/3 7/9/3 5/10/3 6/11/3
f 6/12/4 2/13/4 4/5/4 8/14/4
f 2/13/5 1/1/5 3/4/5 4/5/5
f 6/11/6 5/10/6 1/1/6 2/13/6
f 9/15/6 10/16/6 12/17/6 11/18/6
f 17/19/7 18/20/7 16/21/7 15/22/7
f 15/22/1 16/21/1 14/23/1 13/24/1
f 19/25/3 20/26/3 10/16/3 9/15/3
f 17/19/8 15/22/8 13/24/8 19/27/8
f 18/20/1 12/17/1 10/28/1 20/29/1
f 16/21/9 18/30/9 20/31/9 14/23/9
f 11/18/4 17/19/4 19/32/4 9/33/4
f 13/24/10 14/23/10 20/31/10 19/27/10
f 11/18/5 12/17/5 18/20/5 17/19/5
f 21/34/6 22/35/6 24/36/6 23/37/6
f 29/38/7 30/39/7 28/40/7 27/41/7
f 27/41/1 28/40/1 26/42/1 25/43/1
f 31/44/3 32/45/3 22/35/3 21/34/3
f 29/38/8 27/41/8 25/43/8 31/46/8
f 30/39/1 24/36/1 22/47/1 32/48/1
f 28/40/9 30/49/9 32/50/9 26/42/9
f 23/37/4 29/38/4 31/51/4 21/52/4
f 25/43/10 26/42/10 32/50/10 31/46/10
f 23/37/5 24/36/5 30/39/5 29/38/5
